<mxfile host="app.diagrams.net" modified="2022-11-02T14:45:23.910Z" agent="5.0 (Windows)" etag="bNQrcflUrqs7SpwRB0wf" version="20.2.3" type="github">
  <diagram id="OQ6JWaSc_bS3IvV7CWZU" name="Page-1">
    <mxGraphModel dx="1422" dy="780" grid="1" gridSize="10" guides="1" tooltips="1" connect="1" arrows="1" fold="1" page="1" pageScale="1" pageWidth="1169" pageHeight="827" math="0" shadow="0">
      <root>
        <mxCell id="0" />
        <mxCell id="1" parent="0" />
        <mxCell id="QWrtub7YV12xmcpaw1vI-12" style="edgeStyle=orthogonalEdgeStyle;rounded=0;orthogonalLoop=1;jettySize=auto;html=1;entryX=0;entryY=0.5;entryDx=0;entryDy=0;" edge="1" parent="1" source="QWrtub7YV12xmcpaw1vI-1" target="QWrtub7YV12xmcpaw1vI-2">
          <mxGeometry relative="1" as="geometry" />
        </mxCell>
        <mxCell id="QWrtub7YV12xmcpaw1vI-1" value="&lt;a href=&quot;https://www.timeforstorm.eu/stormstudio/#&quot; class=&quot;EditAccessLink&quot;&gt;004981052034645&lt;/a&gt;" style="rounded=1;whiteSpace=wrap;html=1;" vertex="1" parent="1">
          <mxGeometry x="40" y="195" width="120" height="60" as="geometry" />
        </mxCell>
        <mxCell id="QWrtub7YV12xmcpaw1vI-5" style="edgeStyle=orthogonalEdgeStyle;rounded=0;orthogonalLoop=1;jettySize=auto;html=1;exitX=1;exitY=0.5;exitDx=0;exitDy=0;entryX=0;entryY=0.5;entryDx=0;entryDy=0;" edge="1" parent="1" source="QWrtub7YV12xmcpaw1vI-2" target="QWrtub7YV12xmcpaw1vI-3">
          <mxGeometry relative="1" as="geometry" />
        </mxCell>
        <mxCell id="QWrtub7YV12xmcpaw1vI-9" style="edgeStyle=orthogonalEdgeStyle;rounded=0;orthogonalLoop=1;jettySize=auto;html=1;exitX=0.5;exitY=1;exitDx=0;exitDy=0;entryX=0.367;entryY=1;entryDx=0;entryDy=0;entryPerimeter=0;" edge="1" parent="1" source="QWrtub7YV12xmcpaw1vI-2" target="QWrtub7YV12xmcpaw1vI-3">
          <mxGeometry relative="1" as="geometry">
            <Array as="points">
              <mxPoint x="260" y="335" />
              <mxPoint x="418" y="335" />
            </Array>
          </mxGeometry>
        </mxCell>
        <mxCell id="QWrtub7YV12xmcpaw1vI-2" value="&lt;div&gt;Routing &lt;br&gt;&lt;/div&gt;&lt;div&gt;Schedule&lt;br&gt;&lt;/div&gt;" style="rhombus;whiteSpace=wrap;html=1;" vertex="1" parent="1">
          <mxGeometry x="220" y="185" width="80" height="80" as="geometry" />
        </mxCell>
        <mxCell id="QWrtub7YV12xmcpaw1vI-11" style="edgeStyle=orthogonalEdgeStyle;rounded=0;orthogonalLoop=1;jettySize=auto;html=1;exitX=1;exitY=0.5;exitDx=0;exitDy=0;entryX=0;entryY=0.5;entryDx=0;entryDy=0;" edge="1" parent="1" source="QWrtub7YV12xmcpaw1vI-3" target="QWrtub7YV12xmcpaw1vI-10">
          <mxGeometry relative="1" as="geometry" />
        </mxCell>
        <mxCell id="QWrtub7YV12xmcpaw1vI-3" value="RoutePlanDemo" style="rounded=1;whiteSpace=wrap;html=1;" vertex="1" parent="1">
          <mxGeometry x="374" y="195" width="120" height="60" as="geometry" />
        </mxCell>
        <mxCell id="QWrtub7YV12xmcpaw1vI-7" value="Mo- Th" style="text;html=1;align=center;verticalAlign=middle;resizable=0;points=[];autosize=1;strokeColor=none;fillColor=none;" vertex="1" parent="1">
          <mxGeometry x="290" y="180" width="60" height="30" as="geometry" />
        </mxCell>
        <mxCell id="QWrtub7YV12xmcpaw1vI-8" value="Friday" style="text;html=1;align=center;verticalAlign=middle;resizable=0;points=[];autosize=1;strokeColor=none;fillColor=none;" vertex="1" parent="1">
          <mxGeometry x="300" y="295" width="60" height="30" as="geometry" />
        </mxCell>
        <mxCell id="QWrtub7YV12xmcpaw1vI-10" value="Flow_Alex_01" style="rounded=1;whiteSpace=wrap;html=1;" vertex="1" parent="1">
          <mxGeometry x="540" y="195" width="120" height="60" as="geometry" />
        </mxCell>
        <mxCell id="QWrtub7YV12xmcpaw1vI-13" value="v001 2022-11-02" style="text;html=1;align=center;verticalAlign=middle;resizable=0;points=[];autosize=1;strokeColor=none;fillColor=none;" vertex="1" parent="1">
          <mxGeometry x="30" y="770" width="120" height="30" as="geometry" />
        </mxCell>
        <mxCell id="QWrtub7YV12xmcpaw1vI-24" style="edgeStyle=orthogonalEdgeStyle;rounded=0;orthogonalLoop=1;jettySize=auto;html=1;exitX=1;exitY=0.5;exitDx=0;exitDy=0;entryX=0;entryY=0.5;entryDx=0;entryDy=0;" edge="1" parent="1" source="QWrtub7YV12xmcpaw1vI-15" target="QWrtub7YV12xmcpaw1vI-22">
          <mxGeometry relative="1" as="geometry" />
        </mxCell>
        <mxCell id="QWrtub7YV12xmcpaw1vI-15" value="Welcome" style="rounded=1;whiteSpace=wrap;html=1;" vertex="1" parent="1">
          <mxGeometry x="110" y="450" width="120" height="60" as="geometry" />
        </mxCell>
        <mxCell id="QWrtub7YV12xmcpaw1vI-17" value="" style="triangle;whiteSpace=wrap;html=1;" vertex="1" parent="1">
          <mxGeometry x="20" y="440" width="60" height="80" as="geometry" />
        </mxCell>
        <mxCell id="QWrtub7YV12xmcpaw1vI-20" value="Route to Agent" style="rounded=1;whiteSpace=wrap;html=1;" vertex="1" parent="1">
          <mxGeometry x="570" y="650" width="120" height="60" as="geometry" />
        </mxCell>
        <mxCell id="QWrtub7YV12xmcpaw1vI-26" style="edgeStyle=orthogonalEdgeStyle;rounded=0;orthogonalLoop=1;jettySize=auto;html=1;entryX=0;entryY=0.5;entryDx=0;entryDy=0;" edge="1" parent="1" source="QWrtub7YV12xmcpaw1vI-21" target="QWrtub7YV12xmcpaw1vI-20">
          <mxGeometry relative="1" as="geometry" />
        </mxCell>
        <mxCell id="QWrtub7YV12xmcpaw1vI-27" value="5" style="edgeLabel;html=1;align=center;verticalAlign=middle;resizable=0;points=[];" vertex="1" connectable="0" parent="QWrtub7YV12xmcpaw1vI-26">
          <mxGeometry x="-0.2667" y="-3" relative="1" as="geometry">
            <mxPoint as="offset" />
          </mxGeometry>
        </mxCell>
        <mxCell id="QWrtub7YV12xmcpaw1vI-21" value="" style="rhombus;whiteSpace=wrap;html=1;" vertex="1" parent="1">
          <mxGeometry x="450" y="440" width="80" height="80" as="geometry" />
        </mxCell>
        <mxCell id="QWrtub7YV12xmcpaw1vI-25" style="edgeStyle=orthogonalEdgeStyle;rounded=0;orthogonalLoop=1;jettySize=auto;html=1;entryX=0;entryY=0.5;entryDx=0;entryDy=0;" edge="1" parent="1" source="QWrtub7YV12xmcpaw1vI-22" target="QWrtub7YV12xmcpaw1vI-21">
          <mxGeometry relative="1" as="geometry" />
        </mxCell>
        <mxCell id="QWrtub7YV12xmcpaw1vI-22" value="DTMF" style="rounded=1;whiteSpace=wrap;html=1;" vertex="1" parent="1">
          <mxGeometry x="300" y="450" width="100" height="60" as="geometry" />
        </mxCell>
      </root>
    </mxGraphModel>
  </diagram>
</mxfile>
